<svg width="206" height="84" viewBox="0 0 206 84" fill="none" xmlns="http://www.w3.org/2000/svg">
<path d="M58.5 9L1 21.5V64.5L58.5 76L103.5 83L149 76L205.5 64.5V21.5L149 9L103.5 1L58.5 9Z" fill="white" stroke="black"/>
<path d="M72.304 60V26.4H78.88V60H72.304ZM95.7471 44.64H95.5551H95.7471L98.2911 34.128L100.355 26.4H106.355L108.515 60H102.227L101.315 41.664H101.075L97.6191 55.2H93.6831L90.2271 41.664H89.9871L89.0751 60H82.7871L84.9471 26.4H90.9471L93.0111 34.128L95.5551 44.64H95.7471ZM118.958 60H112.382V26.4H118.958V39.936H126.638V26.4H133.214V60H126.638V46.08H118.958V60Z" fill="#0B0606"/>
</svg>
