<?xml version="1.0" standalone="no"?>
<!DOCTYPE svg PUBLIC "-//W3C//DTD SVG 20010904//EN"
 "http://www.w3.org/TR/2001/REC-SVG-20010904/DTD/svg10.dtd">
<svg version="1.0" xmlns="http://www.w3.org/2000/svg"
 width="507.000000pt" height="265.000000pt" viewBox="0 0 507.000000 265.000000"
 preserveAspectRatio="xMidYMid meet">

<g transform="translate(0.000000,265.000000) scale(0.100000,-0.100000)"
fill="#000000" stroke="none">
<path d="M1293 2255 l-1188 -130 0 -710 0 -710 1155 -127 c635 -70 1187 -128
1225 -128 39 0 590 58 1225 128 l1155 127 0 710 0 710 -1155 127 c-635 69
-1172 128 -1192 130 -20 2 -571 -55 -1225 -127z m707 -845 l0 -400 -60 0 -60
0 0 400 0 400 60 0 60 0 0 -400z m311 130 c20 -146 39 -275 42 -285 5 -20 5
-20 6 0 1 11 19 139 39 285 l38 265 87 3 87 3 0 -401 0 -400 -55 0 -55 0 0
297 c0 163 -2 294 -5 292 -2 -3 -23 -126 -45 -275 -53 -351 -41 -314 -99 -314
-42 0 -50 3 -54 23 -3 12 -22 135 -42 272 -20 138 -40 259 -45 270 -5 12 -9
-100 -9 -272 l-1 -293 -50 0 -50 0 0 400 0 401 87 -3 87 -3 37 -265z m519 105
l0 -165 70 0 70 0 0 165 0 165 60 0 60 0 0 -400 0 -400 -60 0 -60 0 0 180 0
180 -70 0 -70 0 0 -180 0 -180 -60 0 -60 0 0 400 0 400 60 0 60 0 0 -165z"/>
</g>
</svg>
